<svg xmlns="http://www.w3.org/2000/svg" viewBox="0 0 24 24" fill="currentColor" class="w-5 h-5" aria-hidden="true"><path d="M22.46 6c-.77.35-1.6.58-2.46.69a4.28 4.28 0 0 0 1.88-2.36 8.53 8.53 0 0 1-2.71 1.03 4.26 4.26 0 0 0-7.26 3.89A12.1 12.1 0 0 1 3.15 4.9a4.26 4.26 0 0 0 1.32 5.68 4.2 4.2 0 0 1-1.93-.53v.05a4.26 4.26 0 0 0 3.42 4.18 4.28 4.28 0 0 1-1.92.07 4.26 4.26 0 0 0 3.98 2.96A8.55 8.55 0 0 1 2 19.54a12.07 12.07 0 0 0 6.54 1.92c7.85 0 12.14-6.5 12.14-12.14 0-.18-.01-.36-.02-.54A8.66 8.66 0 0 0 22.46 6Z"></path></svg>